<svg width="32" height="32" viewBox="0 0 32 32" fill="none" xmlns="http://www.w3.org/2000/svg">
<path d="M30.2 13.8741V26.3741H2V13.8741H9V20.5741C9 21.131 9.22125 21.6652 9.61507 22.059C10.0089 22.4528 10.543 22.6741 11.1 22.6741H11.2C11.4841 22.6876 11.7679 22.6433 12.0344 22.5439C12.3008 22.4444 12.5443 22.2919 12.75 22.0955C12.9557 21.8991 13.1194 21.663 13.2311 21.4015C13.3429 21.14 13.4003 20.8585 13.4 20.5741V13.8741H30.2Z" stroke="black" stroke-width="1.5" stroke-linecap="round" stroke-linejoin="round"/>
<path d="M30.2 13.8741L15.8 7.07408C13.7985 6.05706 11.5108 5.75052 9.31213 6.20478C7.1135 6.65905 5.13456 7.84713 3.7 9.57408C2.69461 10.7926 2.09966 12.2975 2 13.8741" stroke="black" stroke-width="1.5" stroke-linecap="round" stroke-linejoin="round"/>
<path d="M2 20.1741H4.9" stroke="black" stroke-width="1.5" stroke-linecap="round" stroke-linejoin="round"/>
<path d="M17.3 20.1741H30.2" stroke="black" stroke-width="1.5" stroke-linecap="round" stroke-linejoin="round"/>
</svg>
