<svg width="19" height="18" viewBox="0 0 19 18" fill="none" xmlns="http://www.w3.org/2000/svg">
<path d="M14.7353 14.7661H3.38221C3.24397 14.7661 3.11057 14.7165 3.00756 14.6267C2.90455 14.537 2.83916 14.4134 2.82389 14.2796L1.82521 5.52917C1.81649 5.45273 1.82443 5.37535 1.8485 5.30209C1.87258 5.22884 1.91226 5.16135 1.96495 5.10404C2.01764 5.04672 2.08216 5.00088 2.15429 4.96949C2.22641 4.9381 2.30453 4.92188 2.38353 4.92188H15.7339C15.8129 4.92188 15.891 4.9381 15.9632 4.96949C16.0353 5.00088 16.0998 5.04672 16.1525 5.10404C16.2052 5.16135 16.2449 5.22884 16.269 5.30209C16.293 5.37535 16.301 5.45273 16.2922 5.52917L15.2936 14.2796C15.2783 14.4134 15.2129 14.537 15.1099 14.6267C15.0069 14.7165 14.8735 14.7661 14.7353 14.7661Z" stroke="white" stroke-width="1.5" stroke-linecap="round" stroke-linejoin="round"/>
<path d="M6.24951 7.10961V4.92201C6.24951 4.19677 6.54544 3.50124 7.07218 2.98842C7.59893 2.4756 8.31336 2.1875 9.05829 2.1875C9.80323 2.1875 10.5177 2.4756 11.0444 2.98842C11.5711 3.50124 11.8671 4.19677 11.8671 4.92201V7.10961" stroke="white" stroke-width="1.5" stroke-linecap="round" stroke-linejoin="round"/>
</svg>
