<svg width="20" height="18" viewBox="0 0 20 18" fill="none" xmlns="http://www.w3.org/2000/svg">
<path d="M10 17.25C10 17.25 0.625 12 0.625 5.62501C0.625191 4.49826 1.01561 3.40635 1.72989 2.53493C2.44416 1.66351 3.4382 1.06636 4.54299 0.845015C5.64778 0.623669 6.79514 0.791788 7.78999 1.32079C8.78484 1.84979 9.56577 2.70702 10 3.74673L9.99999 3.74673C10.4342 2.70702 11.2152 1.84979 12.21 1.32079C13.2049 0.79179 14.3522 0.62367 15.457 0.845015C16.5618 1.06636 17.5558 1.66351 18.2701 2.53493C18.9844 3.40635 19.3748 4.49826 19.375 5.62501C19.375 12 10 17.25 10 17.25Z" fill="#FF9F0D" stroke="#FF9F0D" stroke-linecap="round" stroke-linejoin="round"/>
</svg>
