<svg width="24" height="24" viewBox="0 0 24 24" fill="none" xmlns="http://www.w3.org/2000/svg">
<path d="M10.125 12L20.25 12" stroke="#1F242E" stroke-width="1.5" stroke-linecap="round" stroke-linejoin="round"/>
<path d="M3.75 12L6.375 12" stroke="#1F242E" stroke-width="1.5" stroke-linecap="round" stroke-linejoin="round"/>
<path d="M10.125 12C10.125 10.9645 9.28553 10.125 8.25 10.125C7.21447 10.125 6.375 10.9645 6.375 12C6.375 13.0355 7.21447 13.875 8.25 13.875C9.28553 13.875 10.125 13.0355 10.125 12Z" stroke="#1F242E" stroke-width="1.5" stroke-linecap="round" stroke-linejoin="round"/>
<path d="M17.625 5.25L20.25 5.24992" stroke="#1F242E" stroke-width="1.5" stroke-linecap="round" stroke-linejoin="round"/>
<path d="M3.75 5.24992L13.875 5.25" stroke="#1F242E" stroke-width="1.5" stroke-linecap="round" stroke-linejoin="round"/>
<path d="M17.625 5.25C17.625 4.21447 16.7855 3.375 15.75 3.375C14.7145 3.375 13.875 4.21447 13.875 5.25C13.875 6.28553 14.7145 7.125 15.75 7.125C16.7855 7.125 17.625 6.28553 17.625 5.25Z" stroke="#1F242E" stroke-width="1.5" stroke-linecap="round" stroke-linejoin="round"/>
<path d="M14.625 18.7499L20.25 18.75" stroke="#1F242E" stroke-width="1.5" stroke-linecap="round" stroke-linejoin="round"/>
<path d="M3.75 18.75L10.875 18.7499" stroke="#1F242E" stroke-width="1.5" stroke-linecap="round" stroke-linejoin="round"/>
<path d="M14.625 18.75C14.625 17.7145 13.7855 16.875 12.75 16.875C11.7145 16.875 10.875 17.7145 10.875 18.75C10.875 19.7855 11.7145 20.625 12.75 20.625C13.7855 20.625 14.625 19.7855 14.625 18.75Z" stroke="#1F242E" stroke-width="1.5" stroke-linecap="round" stroke-linejoin="round"/>
</svg>
