<svg width="15" height="15" viewBox="0 0 15 15" fill="none" xmlns="http://www.w3.org/2000/svg">
<path d="M7.5376 3.65625C9.50635 3.65625 11.1313 5.28125 11.1313 7.25C11.1313 9.25 9.50635 10.8438 7.5376 10.8438C5.5376 10.8438 3.94385 9.25 3.94385 7.25C3.94385 5.28125 5.5376 3.65625 7.5376 3.65625ZM7.5376 9.59375C8.81885 9.59375 9.8501 8.5625 9.8501 7.25C9.8501 5.96875 8.81885 4.9375 7.5376 4.9375C6.2251 4.9375 5.19385 5.96875 5.19385 7.25C5.19385 8.5625 6.25635 9.59375 7.5376 9.59375ZM12.1001 3.53125C12.1001 4 11.7251 4.375 11.2563 4.375C10.7876 4.375 10.4126 4 10.4126 3.53125C10.4126 3.0625 10.7876 2.6875 11.2563 2.6875C11.7251 2.6875 12.1001 3.0625 12.1001 3.53125ZM14.4751 4.375C14.5376 5.53125 14.5376 9 14.4751 10.1562C14.4126 11.2812 14.1626 12.25 13.3501 13.0938C12.5376 13.9062 11.5376 14.1562 10.4126 14.2188C9.25635 14.2812 5.7876 14.2812 4.63135 14.2188C3.50635 14.1562 2.5376 13.9062 1.69385 13.0938C0.881348 12.25 0.631348 11.2812 0.568848 10.1562C0.506348 9 0.506348 5.53125 0.568848 4.375C0.631348 3.25 0.881348 2.25 1.69385 1.4375C2.5376 0.625 3.50635 0.375 4.63135 0.3125C5.7876 0.25 9.25635 0.25 10.4126 0.3125C11.5376 0.375 12.5376 0.625 13.3501 1.4375C14.1626 2.25 14.4126 3.25 14.4751 4.375ZM12.9751 11.375C13.3501 10.4688 13.2563 8.28125 13.2563 7.25C13.2563 6.25 13.3501 4.0625 12.9751 3.125C12.7251 2.53125 12.2563 2.03125 11.6626 1.8125C10.7251 1.4375 8.5376 1.53125 7.5376 1.53125C6.50635 1.53125 4.31885 1.4375 3.4126 1.8125C2.7876 2.0625 2.31885 2.53125 2.06885 3.125C1.69385 4.0625 1.7876 6.25 1.7876 7.25C1.7876 8.28125 1.69385 10.4688 2.06885 11.375C2.31885 12 2.7876 12.4688 3.4126 12.7188C4.31885 13.0938 6.50635 13 7.5376 13C8.5376 13 10.7251 13.0938 11.6626 12.7188C12.2563 12.4688 12.7563 12 12.9751 11.375Z" fill="#1E1E1E"/>
</svg>
