<svg width="16" height="16" viewBox="0 0 16 16" fill="none" xmlns="http://www.w3.org/2000/svg">
<path d="M15.625 8.25C15.625 12.5312 12.1562 16 7.875 16C7.0625 16 6.28125 15.9062 5.5625 15.6562C5.875 15.1562 6.34375 14.3125 6.53125 13.625C6.625 13.2812 7 11.7812 7 11.7812C7.25 12.2812 8 12.6875 8.78125 12.6875C11.125 12.6875 12.8125 10.5312 12.8125 7.875C12.8125 5.3125 10.7188 3.375 8.03125 3.375C4.6875 3.375 2.90625 5.625 2.90625 8.0625C2.90625 9.21875 3.5 10.625 4.46875 11.0938C4.625 11.1562 4.71875 11.125 4.75 10.9688C4.75 10.875 4.90625 10.3438 4.96875 10.0938C4.96875 10.0312 4.96875 9.9375 4.90625 9.875C4.59375 9.5 4.34375 8.78125 4.34375 8.09375C4.34375 6.40625 5.625 4.75 7.84375 4.75C9.71875 4.75 11.0625 6.03125 11.0625 7.90625C11.0625 10 10 11.4375 8.625 11.4375C7.875 11.4375 7.3125 10.8125 7.46875 10.0625C7.6875 9.125 8.125 8.125 8.125 7.46875C8.125 6.875 7.8125 6.375 7.15625 6.375C6.375 6.375 5.75 7.1875 5.75 8.25C5.75 8.9375 5.96875 9.40625 5.96875 9.40625C5.96875 9.40625 5.21875 12.6562 5.0625 13.25C4.90625 13.9375 4.96875 14.875 5.03125 15.4688C2.15625 14.3438 0.125 11.5625 0.125 8.25C0.125 3.96875 3.59375 0.5 7.875 0.5C12.1562 0.5 15.625 3.96875 15.625 8.25Z" fill="#1E1E1E"/>
</svg>
