<svg width="32" height="32" viewBox="0 0 32 32" fill="none" xmlns="http://www.w3.org/2000/svg">
<path d="M22.801 25.0864V29.1864H8.80098V25.0864H8.90102C6.78199 23.887 5.0238 22.1407 3.81008 20.0299C2.59635 17.9191 1.97157 15.5211 2.00099 13.0864H29.701C29.7096 15.517 29.076 17.9069 27.8644 20.0141C26.6528 22.1213 24.906 23.871 22.801 25.0864Z" stroke="black" stroke-width="1.5" stroke-linecap="round" stroke-linejoin="round"/>
<path d="M21.901 13.1864H14.901L21.701 3.28637C22.1464 2.64633 22.8235 2.20487 23.5889 2.05554C24.3542 1.9062 25.1476 2.06074 25.801 2.48639C26.441 2.9318 26.8825 3.60892 27.0318 4.37426C27.1811 5.13961 27.0266 5.93301 26.601 6.58636L21.901 13.1864Z" stroke="black" stroke-width="1.5" stroke-linecap="round" stroke-linejoin="round"/>
</svg>
