<svg width="11" height="13" viewBox="0 0 11 13" fill="none" xmlns="http://www.w3.org/2000/svg">
<path d="M9.63016 2.78024C9.5445 2.73489 9.46111 2.68518 9.3803 2.63129C9.14532 2.47217 8.92988 2.28468 8.73861 2.07285C8.26005 1.51199 8.08132 0.942995 8.01549 0.544619H8.01813C7.96314 0.213948 7.98587 0 7.98931 0H5.80962V8.63319C5.80962 8.7491 5.80962 8.86366 5.80486 8.97686C5.80486 8.99095 5.80354 9.00395 5.80275 9.01911C5.80275 9.02534 5.80275 9.03184 5.80143 9.03834C5.80143 9.03997 5.80143 9.04159 5.80143 9.04322C5.77845 9.35297 5.68151 9.6522 5.51913 9.91458C5.35676 10.177 5.13392 10.3944 4.87022 10.5479C4.59539 10.708 4.28455 10.792 3.96836 10.7916C2.95281 10.7916 2.12975 9.94342 2.12975 8.89589C2.12975 7.84836 2.95281 7.00015 3.96836 7.00015C4.1606 6.99997 4.35166 7.03095 4.53444 7.09196L4.53708 4.8187C3.98221 4.74528 3.4185 4.79045 2.88153 4.95136C2.34455 5.11226 1.84595 5.38541 1.4172 5.75357C1.04151 6.08792 0.725662 6.48687 0.483876 6.93245C0.391866 7.09494 0.0447127 7.74788 0.00267355 8.8076C-0.0237661 9.40909 0.152587 10.0322 0.236665 10.2898V10.2952C0.289544 10.4469 0.494452 10.9644 0.828385 11.4007C1.09766 11.7507 1.41579 12.0581 1.77255 12.3131V12.3077L1.77783 12.3131C2.83304 13.0476 4.003 12.9994 4.003 12.9994C4.20553 12.991 4.88397 12.9994 5.65442 12.6253C6.50895 12.2107 6.99544 11.593 6.99544 11.593C7.30624 11.2239 7.55337 10.8032 7.72624 10.3491C7.92348 9.81803 7.98931 9.18106 7.98931 8.92649V4.34639C8.01575 4.36264 8.36793 4.60123 8.36793 4.60123C8.36793 4.60123 8.87531 4.93434 9.66691 5.15126C10.2348 5.30563 11 5.33813 11 5.33813V3.12174C10.7319 3.15153 10.1875 3.06487 9.63016 2.78024Z" fill="#1E1E1E"/>
</svg>
