<svg width="153" height="25" viewBox="0 0 153 25" fill="none" xmlns="http://www.w3.org/2000/svg">
<path d="M23.9948 9.4385L16.6181 8.31207L13.3128 1.26147C13.2409 1.14079 13.141 1.0413 13.0224 0.972332C12.9039 0.903367 12.7707 0.867188 12.6353 0.867188C12.4998 0.867188 12.3666 0.903367 12.2481 0.972332C12.1296 1.0413 12.0296 1.14079 11.9577 1.26147L8.65239 8.3217L1.27874 9.4385C1.14516 9.45228 1.0181 9.50587 0.912488 9.59298C0.806877 9.68008 0.727108 9.79707 0.682554 9.9302C0.638 10.0633 0.630513 10.2071 0.660974 10.3445C0.691435 10.482 0.758577 10.6074 0.85451 10.7061L6.21078 16.2099L4.9442 23.9826C4.92799 24.1259 4.94974 24.2711 5.00706 24.4022C5.06438 24.5333 5.15503 24.6452 5.26901 24.7255C5.383 24.8058 5.51587 24.8515 5.65298 24.8575C5.79008 24.8634 5.92609 24.8294 6.04597 24.7592L12.6353 21.1136L19.2215 24.7624C19.3414 24.8326 19.4774 24.8666 19.6145 24.8607C19.7516 24.8547 19.8845 24.809 19.9984 24.7287C20.1124 24.6484 20.2031 24.5365 20.2604 24.4054C20.3177 24.2743 20.3395 24.1291 20.3233 23.9858L19.0597 16.2099L24.416 10.7061C24.5119 10.6074 24.5791 10.482 24.6095 10.3445C24.64 10.2071 24.6325 10.0633 24.588 9.9302C24.5434 9.79707 24.4636 9.68008 24.358 9.59298C24.2524 9.50587 24.1253 9.45228 23.9918 9.4385H23.9948Z" fill="#FF9F0D"/>
<path d="M55.9753 9.4385L48.5986 8.31207L45.2933 1.26147C45.2213 1.14079 45.1214 1.0413 45.0029 0.972332C44.8844 0.903367 44.7512 0.867188 44.6157 0.867188C44.4803 0.867188 44.347 0.903367 44.2285 0.972332C44.11 1.0413 44.0101 1.14079 43.9382 1.26147L40.6329 8.3217L33.2592 9.4385C33.1256 9.45228 32.9986 9.50587 32.893 9.59298C32.7873 9.68008 32.7076 9.79707 32.663 9.9302C32.6185 10.0633 32.611 10.2071 32.6414 10.3445C32.6719 10.482 32.739 10.6074 32.835 10.7061L38.1912 16.2099L36.9247 23.9826C36.9085 24.1259 36.9302 24.2711 36.9875 24.4022C37.0448 24.5333 37.1355 24.6452 37.2495 24.7255C37.3635 24.8058 37.4963 24.8515 37.6334 24.8575C37.7706 24.8634 37.9066 24.8294 38.0264 24.7592L44.6157 21.1136L51.202 24.7624C51.3218 24.8326 51.4578 24.8666 51.5949 24.8607C51.7321 24.8547 51.8649 24.809 51.9789 24.7287C52.0929 24.6484 52.1835 24.5365 52.2409 24.4054C52.2982 24.2743 52.3199 24.1291 52.3037 23.9858L51.0402 16.2099L56.3965 10.7061C56.4924 10.6074 56.5595 10.482 56.59 10.3445C56.6205 10.2071 56.613 10.0633 56.5684 9.9302C56.5239 9.79707 56.4441 9.68008 56.3385 9.59298C56.2329 9.50587 56.1058 9.45228 55.9722 9.4385H55.9753Z" fill="#FF9F0D"/>
<path d="M87.9558 9.4385L80.5791 8.31207L77.2737 1.26147C77.2018 1.14079 77.1019 1.0413 76.9834 0.972332C76.8649 0.903367 76.7316 0.867188 76.5962 0.867188C76.4607 0.867188 76.3275 0.903367 76.209 0.972332C76.0905 1.0413 75.9906 1.14079 75.9186 1.26147L72.6133 8.3217L65.2397 9.4385C65.1061 9.45228 64.979 9.50587 64.8734 9.59298C64.7678 9.68008 64.688 9.79707 64.6435 9.9302C64.5989 10.0633 64.5915 10.2071 64.6219 10.3445C64.6524 10.482 64.7195 10.6074 64.8154 10.7061L70.1717 16.2099L68.9051 23.9826C68.8889 24.1259 68.9107 24.2711 68.968 24.4022C69.0253 24.5333 69.116 24.6452 69.23 24.7255C69.3439 24.8058 69.4768 24.8515 69.6139 24.8575C69.751 24.8634 69.887 24.8294 70.0069 24.7592L76.5962 21.1136L83.1824 24.7624C83.3023 24.8326 83.4383 24.8666 83.5754 24.8607C83.7125 24.8547 83.8454 24.809 83.9594 24.7287C84.0734 24.6484 84.164 24.5365 84.2213 24.4054C84.2786 24.2743 84.3004 24.1291 84.2842 23.9858L83.0207 16.2099L88.3769 10.7061C88.4729 10.6074 88.54 10.482 88.5705 10.3445C88.6009 10.2071 88.5934 10.0633 88.5489 9.9302C88.5043 9.79707 88.4246 9.68008 88.319 9.59298C88.2133 9.50587 88.0863 9.45228 87.9527 9.4385H87.9558Z" fill="#FF9F0D"/>
<path d="M119.936 9.4385L112.559 8.31207L109.254 1.26147C109.182 1.14079 109.082 1.0413 108.964 0.972332C108.845 0.903367 108.712 0.867188 108.577 0.867188C108.441 0.867188 108.308 0.903367 108.189 0.972332C108.071 1.0413 107.971 1.14079 107.899 1.26147L104.594 8.3217L97.2201 9.4385C97.0866 9.45228 96.9595 9.50587 96.8539 9.59298C96.7483 9.68008 96.6685 9.79707 96.624 9.9302C96.5794 10.0633 96.5719 10.2071 96.6024 10.3445C96.6328 10.482 96.7 10.6074 96.7959 10.7061L102.152 16.2099L100.886 23.9826C100.869 24.1259 100.891 24.2711 100.948 24.4022C101.006 24.5333 101.096 24.6452 101.21 24.7255C101.324 24.8058 101.457 24.8515 101.594 24.8575C101.731 24.8634 101.867 24.8294 101.987 24.7592L108.577 21.1136L115.163 24.7624C115.283 24.8326 115.419 24.8666 115.556 24.8607C115.693 24.8547 115.826 24.809 115.94 24.7287C116.054 24.6484 116.144 24.5365 116.202 24.4054C116.259 24.2743 116.281 24.1291 116.265 23.9858L115.001 16.2099L120.357 10.7061C120.453 10.6074 120.52 10.482 120.551 10.3445C120.581 10.2071 120.574 10.0633 120.529 9.9302C120.485 9.79707 120.405 9.68008 120.299 9.59298C120.194 9.50587 120.067 9.45228 119.933 9.4385H119.936Z" fill="#FF9F0D"/>
<path d="M152.352 9.57131L144.976 8.44488L141.67 1.39428C141.598 1.2736 141.498 1.17411 141.38 1.10514C141.261 1.03618 141.128 1 140.993 1C140.857 1 140.724 1.03618 140.605 1.10514C140.487 1.17411 140.387 1.2736 140.315 1.39428L137.01 8.45451L129.636 9.57131C129.503 9.5851 129.376 9.63869 129.27 9.72579C129.164 9.81289 129.085 9.92988 129.04 10.063C128.995 10.1961 128.988 10.3399 129.018 10.4773C129.049 10.6148 129.116 10.7402 129.212 10.8389L134.568 16.3427L133.302 24.1154C133.285 24.2587 133.307 24.4039 133.364 24.535C133.422 24.6661 133.512 24.778 133.626 24.8583C133.74 24.9387 133.873 24.9843 134.01 24.9903C134.147 24.9962 134.283 24.9622 134.403 24.892L140.993 21.2464L147.579 24.8952C147.699 24.9654 147.835 24.9994 147.972 24.9935C148.109 24.9875 148.242 24.9419 148.356 24.8615C148.47 24.7812 148.56 24.6693 148.618 24.5382C148.675 24.4071 148.697 24.2619 148.681 24.1186L147.417 16.3427L152.773 10.8389C152.869 10.7402 152.936 10.6148 152.967 10.4773C152.997 10.3399 152.99 10.1961 152.945 10.063C152.901 9.92988 152.821 9.81289 152.715 9.72579C152.61 9.63869 152.483 9.5851 152.349 9.57131H152.352Z" fill="#FF9F0D"/>
</svg>
