<svg width="153" height="25" viewBox="0 0 153 25" fill="none" xmlns="http://www.w3.org/2000/svg">
<path d="M23.9949 9.4385L16.6182 8.31207L13.3129 1.26147C13.241 1.14079 13.1411 1.0413 13.0226 0.972332C12.9041 0.903367 12.7708 0.867188 12.6354 0.867188C12.4999 0.867188 12.3667 0.903367 12.2482 0.972332C12.1297 1.0413 12.0298 1.14079 11.9578 1.26147L8.65251 8.3217L1.27886 9.4385C1.14528 9.45228 1.01822 9.50587 0.91261 9.59298C0.807 9.68008 0.72723 9.79707 0.682676 9.9302C0.638122 10.0633 0.630635 10.2071 0.661096 10.3445C0.691557 10.482 0.7587 10.6074 0.854632 10.7061L6.2109 16.2099L4.94432 23.9826C4.92811 24.1259 4.94987 24.2711 5.00718 24.4022C5.0645 24.5333 5.15516 24.6452 5.26914 24.7255C5.38312 24.8058 5.51599 24.8515 5.6531 24.8575C5.7902 24.8634 5.92621 24.8294 6.04609 24.7592L12.6354 21.1136L19.2216 24.7624C19.3415 24.8326 19.4775 24.8666 19.6146 24.8607C19.7517 24.8547 19.8846 24.809 19.9986 24.7287C20.1125 24.6484 20.2032 24.5365 20.2605 24.4054C20.3178 24.2743 20.3396 24.1291 20.3234 23.9858L19.0598 16.2099L24.4161 10.7061C24.5121 10.6074 24.5792 10.482 24.6097 10.3445C24.6401 10.2071 24.6326 10.0633 24.5881 9.9302C24.5435 9.79707 24.4638 9.68008 24.3581 9.59298C24.2525 9.50587 24.1255 9.45228 23.9919 9.4385H23.9949Z" fill="#FF9F0D"/>
<path d="M55.9754 9.4385L48.5987 8.31207L45.2934 1.26147C45.2215 1.14079 45.1215 1.0413 45.003 0.972332C44.8845 0.903367 44.7513 0.867188 44.6158 0.867188C44.4804 0.867188 44.3472 0.903367 44.2287 0.972332C44.1101 1.0413 44.0102 1.14079 43.9383 1.26147L40.633 8.3217L33.2593 9.4385C33.1258 9.45228 32.9987 9.50587 32.8931 9.59298C32.7875 9.68008 32.7077 9.79707 32.6631 9.9302C32.6186 10.0633 32.6111 10.2071 32.6416 10.3445C32.672 10.482 32.7392 10.6074 32.8351 10.7061L38.1914 16.2099L36.9248 23.9826C36.9086 24.1259 36.9303 24.2711 36.9877 24.4022C37.045 24.5333 37.1356 24.6452 37.2496 24.7255C37.3636 24.8058 37.4965 24.8515 37.6336 24.8575C37.7707 24.8634 37.9067 24.8294 38.0266 24.7592L44.6158 21.1136L51.2021 24.7624C51.322 24.8326 51.458 24.8666 51.5951 24.8607C51.7322 24.8547 51.8651 24.809 51.979 24.7287C52.093 24.6484 52.1837 24.5365 52.241 24.4054C52.2983 24.2743 52.3201 24.1291 52.3038 23.9858L51.0403 16.2099L56.3966 10.7061C56.4925 10.6074 56.5597 10.482 56.5901 10.3445C56.6206 10.2071 56.6131 10.0633 56.5685 9.9302C56.524 9.79707 56.4442 9.68008 56.3386 9.59298C56.233 9.50587 56.1059 9.45228 55.9724 9.4385H55.9754Z" fill="#FF9F0D"/>
<path d="M87.9559 9.4385L80.5792 8.31207L77.2739 1.26147C77.2019 1.14079 77.102 1.0413 76.9835 0.972332C76.865 0.903367 76.7318 0.867188 76.5963 0.867188C76.4609 0.867188 76.3276 0.903367 76.2091 0.972332C76.0906 1.0413 75.9907 1.14079 75.9188 1.26147L72.6134 8.3217L65.2398 9.4385C65.1062 9.45228 64.9792 9.50587 64.8735 9.59298C64.7679 9.68008 64.6882 9.79707 64.6436 9.9302C64.5991 10.0633 64.5916 10.2071 64.622 10.3445C64.6525 10.482 64.7196 10.6074 64.8156 10.7061L70.1718 16.2099L68.9053 23.9826C68.889 24.1259 68.9108 24.2711 68.9681 24.4022C69.0254 24.5333 69.1161 24.6452 69.2301 24.7255C69.3441 24.8058 69.4769 24.8515 69.614 24.8575C69.7511 24.8634 69.8871 24.8294 70.007 24.7592L76.5963 21.1136L83.1825 24.7624C83.3024 24.8326 83.4384 24.8666 83.5755 24.8607C83.7126 24.8547 83.8455 24.809 83.9595 24.7287C84.0735 24.6484 84.1641 24.5365 84.2215 24.4054C84.2788 24.2743 84.3005 24.1291 84.2843 23.9858L83.0208 16.2099L88.3771 10.7061C88.473 10.6074 88.5401 10.482 88.5706 10.3445C88.6011 10.2071 88.5936 10.0633 88.549 9.9302C88.5045 9.79707 88.4247 9.68008 88.3191 9.59298C88.2135 9.50587 88.0864 9.45228 87.9528 9.4385H87.9559Z" fill="#FF9F0D"/>
<path d="M119.936 9.4385L112.56 8.31207L109.254 1.26147C109.182 1.14079 109.082 1.0413 108.964 0.972332C108.845 0.903367 108.712 0.867188 108.577 0.867188C108.441 0.867188 108.308 0.903367 108.19 0.972332C108.071 1.0413 107.971 1.14079 107.899 1.26147L104.594 8.3217L97.2203 9.4385C97.0867 9.45228 96.9596 9.50587 96.854 9.59298C96.7484 9.68008 96.6686 9.79707 96.6241 9.9302C96.5795 10.0633 96.572 10.2071 96.6025 10.3445C96.633 10.482 96.7001 10.6074 96.796 10.7061L102.152 16.2099L100.886 23.9826C100.87 24.1259 100.891 24.2711 100.949 24.4022C101.006 24.5333 101.097 24.6452 101.211 24.7255C101.325 24.8058 101.457 24.8515 101.594 24.8575C101.732 24.8634 101.868 24.8294 101.987 24.7592L108.577 21.1136L115.163 24.7624C115.283 24.8326 115.419 24.8666 115.556 24.8607C115.693 24.8547 115.826 24.809 115.94 24.7287C116.054 24.6484 116.145 24.5365 116.202 24.4054C116.259 24.2743 116.281 24.1291 116.265 23.9858L115.001 16.2099L120.357 10.7061C120.453 10.6074 120.521 10.482 120.551 10.3445C120.581 10.2071 120.574 10.0633 120.529 9.9302C120.485 9.79707 120.405 9.68008 120.299 9.59298C120.194 9.50587 120.067 9.45228 119.933 9.4385H119.936Z" fill="#FF9F0D"/>
<path d="M151.917 9.4385L144.54 8.31207L141.235 1.26147C141.163 1.14079 141.063 1.0413 140.944 0.972332C140.826 0.903367 140.693 0.867188 140.557 0.867188C140.422 0.867188 140.289 0.903367 140.17 0.972332C140.051 1.0413 139.952 1.14079 139.88 1.26147L136.574 8.3217L129.201 9.4385C129.067 9.45228 128.94 9.50587 128.834 9.59298C128.729 9.68008 128.649 9.79707 128.604 9.9302C128.56 10.0633 128.552 10.2071 128.583 10.3445C128.613 10.482 128.681 10.6074 128.776 10.7061L134.133 16.2099L132.866 23.9826C132.85 24.1259 132.872 24.2711 132.929 24.4022C132.986 24.5333 133.077 24.6452 133.191 24.7255C133.305 24.8058 133.438 24.8515 133.575 24.8575C133.712 24.8634 133.848 24.8294 133.968 24.7592L140.557 21.1136L147.143 24.7624C147.263 24.8326 147.399 24.8666 147.536 24.8607C147.674 24.8547 147.806 24.809 147.92 24.7287C148.034 24.6484 148.125 24.5365 148.182 24.4054C148.24 24.2743 148.261 24.1291 148.245 23.9858L146.982 16.2099L152.338 10.7061C152.434 10.6074 152.501 10.482 152.531 10.3445C152.562 10.2071 152.554 10.0633 152.51 9.9302C152.465 9.79707 152.386 9.68008 152.28 9.59298C152.174 9.50587 152.047 9.45228 151.914 9.4385H151.917Z" fill="#E0E0E0"/>
</svg>
