<svg width="49" height="49" viewBox="0 0 49 49" fill="none" xmlns="http://www.w3.org/2000/svg">
<path d="M20.8486 27.9138H8.10638C7.7088 27.9138 7.3275 27.7558 7.04637 27.4746C6.76524 27.1933 6.6073 26.8119 6.6073 26.4142V14.4171C6.6073 14.0194 6.76524 13.6379 7.04637 13.3567C7.3275 13.0755 7.7088 12.9175 8.10638 12.9175H19.3495C19.7471 12.9175 20.1284 13.0755 20.4095 13.3567C20.6907 13.6379 20.8486 14.0194 20.8486 14.4171V30.9131C20.8486 32.9017 20.0589 34.8089 18.6532 36.215C17.2476 37.6212 15.3411 38.4112 13.3532 38.4112" stroke="#FF9F0D" stroke-width="1.5" stroke-linecap="round" stroke-linejoin="round"/>
<path d="M42.5853 27.9138H29.8431C29.4455 27.9138 29.0642 27.7558 28.7831 27.4746C28.5019 27.1933 28.344 26.8119 28.344 26.4142V14.4171C28.344 14.0194 28.5019 13.6379 28.7831 13.3567C29.0642 13.0755 29.4455 12.9175 29.8431 12.9175H41.0862C41.4838 12.9175 41.8651 13.0755 42.1462 13.3567C42.4274 13.6379 42.5853 14.0194 42.5853 14.4171V30.9131C42.5853 32.9017 41.7956 34.8089 40.3899 36.215C38.9843 37.6212 37.0778 38.4112 35.0899 38.4112" stroke="#FF9F0D" stroke-width="1.5" stroke-linecap="round" stroke-linejoin="round"/>
</svg>
