<svg width="25" height="21" viewBox="0 0 25 21" fill="none" xmlns="http://www.w3.org/2000/svg">
<g filter="url(#filter0_d_308_11766)">
<path d="M10.51 12.0033C10.3416 12.155 10.1229 12.2389 9.89621 12.2389C9.66951 12.2389 9.45085 12.155 9.28242 12.0033L4.381 7.45772C4.26111 7.35024 4.16522 7.21871 4.09958 7.0717C4.03393 6.92469 4 6.7655 4 6.60451C4 6.44351 4.03393 6.28432 4.09958 6.13731C4.16522 5.9903 4.26111 5.85877 4.381 5.75129L4.99479 5.18199C5.24727 4.95412 5.57533 4.82797 5.91547 4.82797C6.25561 4.82797 6.58366 4.95412 6.83615 5.18199L9.89621 8.01963L18.1638 0.354017C18.4163 0.126142 18.7444 0 19.0845 0C19.4247 0 19.7527 0.126142 20.0052 0.354017L20.619 0.923318C20.7389 1.0308 20.8348 1.16233 20.9004 1.30934C20.9661 1.45635 21 1.61554 21 1.77653C21 1.93753 20.9661 2.09672 20.9004 2.24372C20.8348 2.39073 20.7389 2.52226 20.619 2.62975L10.51 12.0033Z" fill="white"/>
</g>
<defs>
<filter id="filter0_d_308_11766" x="0" y="0" width="25" height="20.239" filterUnits="userSpaceOnUse" color-interpolation-filters="sRGB">
<feFlood flood-opacity="0" result="BackgroundImageFix"/>
<feColorMatrix in="SourceAlpha" type="matrix" values="0 0 0 0 0 0 0 0 0 0 0 0 0 0 0 0 0 0 127 0" result="hardAlpha"/>
<feOffset dy="4"/>
<feGaussianBlur stdDeviation="2"/>
<feComposite in2="hardAlpha" operator="out"/>
<feColorMatrix type="matrix" values="0 0 0 0 0 0 0 0 0 0 0 0 0 0 0 0 0 0 0.25 0"/>
<feBlend mode="normal" in2="BackgroundImageFix" result="effect1_dropShadow_308_11766"/>
<feBlend mode="normal" in="SourceGraphic" in2="effect1_dropShadow_308_11766" result="shape"/>
</filter>
</defs>
</svg>
