<svg width="119" height="81" viewBox="0 0 119 81" fill="none" xmlns="http://www.w3.org/2000/svg">
<path d="M79.63 26.63C71.26 26.63 62.77 26.3 54.81 24.08C46.85 21.86 39.87 17.71 33.44 12.85C29.26 9.67997 25.44 7.16997 20.02 7.54997C14.7072 7.83024 9.62612 9.81498 5.52999 13.21C-1.38001 19.21 -0.330014 30.44 2.42999 38.31C6.57999 50.16 19.22 58.39 30 63.76C42.41 69.96 56 73.56 69.71 75.63C81.71 77.45 97.08 78.77 107.46 70.95C117 63.76 119.62 47.35 117.28 36.26C116.688 32.9967 114.929 30.0605 112.33 28C105.64 23.11 95.64 26.38 88.12 26.54C85.32 26.55 82.48 26.62 79.63 26.63Z" fill="#F2F2F2"/>
<path d="M103.32 71.04V75.33" stroke="#4FB045" stroke-linecap="round" stroke-linejoin="round"/>
<path d="M101.17 73.18H105.46" stroke="#4FB045" stroke-linecap="round" stroke-linejoin="round"/>
<path d="M28.47 12.51V16.81" stroke="#4FB045" stroke-linecap="round" stroke-linejoin="round"/>
<path d="M26.3301 14.66H30.6201" stroke="#4FB045" stroke-linecap="round" stroke-linejoin="round"/>
<path d="M100.46 12.9C101.001 12.9 101.44 12.4612 101.44 11.92C101.44 11.3788 101.001 10.94 100.46 10.94C99.9187 10.94 99.48 11.3788 99.48 11.92C99.48 12.4612 99.9187 12.9 100.46 12.9Z" fill="#FF9F0D"/>
<path d="M31.8101 44.23C32.3513 44.23 32.7901 43.7913 32.7901 43.25C32.7901 42.7088 32.3513 42.27 31.8101 42.27C31.2688 42.27 30.8301 42.7088 30.8301 43.25C30.8301 43.7913 31.2688 44.23 31.8101 44.23Z" fill="#FF9F0D"/>
<path d="M79.64 71.84L61.85 61.16C61.2451 60.7999 60.5541 60.6098 59.85 60.6098C59.146 60.6098 58.455 60.7999 57.85 61.16L40.47 71.76C39.8788 72.1205 39.2022 72.317 38.5098 72.3294C37.8174 72.3417 37.1343 72.1696 36.5305 71.8305C35.9267 71.4914 35.4241 70.9977 35.0742 70.4001C34.7244 69.8025 34.54 69.1225 34.54 68.43V4.73001C34.54 3.69567 34.9509 2.70369 35.6823 1.9723C36.4137 1.24091 37.4057 0.830017 38.44 0.830017H81.69C82.7236 0.832657 83.714 1.2444 84.4448 1.97522C85.1757 2.70604 85.5874 3.69648 85.59 4.73001V68.49C85.5958 69.1872 85.4146 69.8732 85.0652 70.4766C84.7158 71.08 84.2111 71.5787 83.6035 71.9207C82.996 72.2628 82.3079 72.4357 81.6108 72.4215C80.9137 72.4073 80.2332 72.2065 79.64 71.84Z" fill="#D2D2D2"/>
<path d="M87.2301 79.62L68.6601 68.47C68.0235 68.0853 67.2939 67.882 66.5501 67.882C65.8063 67.882 65.0767 68.0853 64.4401 68.47L46.3001 79.55C45.6819 79.926 44.9748 80.1308 44.2513 80.1434C43.5279 80.156 42.8141 79.976 42.1831 79.6219C41.5521 79.2677 41.0267 78.7521 40.6607 78.128C40.2946 77.5038 40.1012 76.7936 40.1001 76.07V9.55999C40.1027 8.47964 40.5338 7.44444 41.2986 6.68145C42.0635 5.91847 43.0997 5.48999 44.1801 5.48999H89.3301C90.4095 5.48999 91.4448 5.91879 92.208 6.68206C92.9713 7.44534 93.4001 8.48056 93.4001 9.55999V76.13C93.4007 76.8511 93.2098 77.5595 92.8467 78.1826C92.4837 78.8057 91.9616 79.3211 91.3339 79.6762C90.7062 80.0312 89.9955 80.2131 89.2744 80.2032C88.5533 80.1934 87.8478 79.9921 87.2301 79.62Z" fill="white" stroke="#FF9F0D" stroke-linecap="round" stroke-linejoin="round"/>
<path d="M66.75 52.02C77.0833 52.02 85.46 43.6432 85.46 33.31C85.46 22.9767 77.0833 14.6 66.75 14.6C56.4168 14.6 48.04 22.9767 48.04 33.31C48.04 43.6432 56.4168 52.02 66.75 52.02Z" fill="#4FB045"/>
<path d="M67.7099 20.12L71.1499 27.12L78.8299 28.24C79.0262 28.2699 79.2103 28.3538 79.3617 28.4823C79.513 28.6109 79.6256 28.779 79.6868 28.9679C79.748 29.1567 79.7555 29.3589 79.7084 29.5518C79.6612 29.7447 79.5614 29.9206 79.4199 30.06L73.8599 35.48L75.1699 43.13C75.2038 43.3266 75.182 43.5288 75.1071 43.7136C75.0321 43.8985 74.907 44.0588 74.7458 44.1763C74.5846 44.2938 74.3938 44.3639 74.1948 44.3787C73.9959 44.3935 73.7968 44.3524 73.6199 44.26L66.7499 40.6L59.8799 44.22C59.7031 44.3124 59.504 44.3535 59.3051 44.3387C59.1061 44.3239 58.9153 44.2538 58.7541 44.1363C58.5929 44.0188 58.4677 43.8585 58.3928 43.6736C58.3178 43.4888 58.2961 43.2866 58.3299 43.09L59.6499 35.44L54.0899 30C53.9447 29.8623 53.8414 29.6863 53.792 29.4923C53.7427 29.2983 53.7492 29.0943 53.8109 28.9039C53.8727 28.7135 53.987 28.5445 54.1408 28.4164C54.2946 28.2883 54.4815 28.2063 54.6799 28.18L62.3599 27.06L65.7999 20.06C65.8946 19.886 66.0358 19.7417 66.2077 19.6431C66.3795 19.5446 66.5754 19.4957 66.7734 19.5019C66.9714 19.5082 67.1638 19.5692 67.3292 19.6784C67.4945 19.7875 67.6264 19.9404 67.7099 20.12Z" fill="white" stroke="#FF9F0D" stroke-linecap="round" stroke-linejoin="round"/>
</svg>
